<svg xmlns:svg="http://www.w3.org/2000/svg" xmlns="http://www.w3.org/2000/svg" width="425" height="530" viewBox="0 0 425 530" version="1.1">
	<metadata>
		<rdf:RDF xmlns:rdf="http://www.w3.org/1999/02/22-rdf-syntax-ns#" xmlns:rdfs="http://www.w3.org/2000/01/rdf-schema#" xmlns:dc="http://purl.org/dc/elements/1.1/">
			<rdf:Description about="https://github.com/mborgbrant/responsive-svg-chicken" dc:title="Responsive SVG Chicken" dc:description="A happy animated chicken" dc:publisher="Mikael Borgbrant" dc:date="2016-03-16" dc:format="image/svg+xml">
			</rdf:Description>
		</rdf:RDF>
	</metadata>
	<style>
		.color-orange { fill: #da9d47; }
		.color-black { fill: #1a1a15; }
		.color-dark-yellow { fill: #f0d83a; }
		.color-yellow {  fill: #f6e843; }
		@keyframes try-to-fly {
			0%   { transform: rotate(1deg); }
			50%  { transform: rotate(4deg); }
			100% { transform: rotate(1deg); }
		}
		@keyframes silly-walk {
			0%   { transform: rotate(-1deg); }
			50%  { transform: rotate(-5deg); }
			100% { transform: rotate(-1deg); }
		}
		@keyframes left-leg {
			0% { transform: rotate(45deg) translate(70%, -1%); }
			50% { transform: rotate(-40deg) translate(70%, -1%); }
			100% { transform: rotate(45deg) translate(70%, -1%); }
		}
		@keyframes right-leg {
			0% { transform: rotate(-45deg) translate(70%, -1%); }
			50% { transform: rotate(40deg) translate(70%, -1%); }
			100% { transform: rotate(-45deg) translate(70%, -1%); }
		}
		#chicken-wing.rotated {
			animation-name: try-to-fly;
			animation-duration: 600ms;
			animation-iteration-count: infinite;
		}
		#chicken-left-leg.animated {
			animation-name: left-leg;
			animation-duration: 1s;
			animation-iteration-count: infinite;
			transform-origin: 90% 0%;
		}
		#chicken-right-leg.animated {
			animation-name: right-leg;
			animation-duration: 1s;
			animation-iteration-count: infinite;
			transform-origin: 90% 0%;
		}
		#chicken-body-group.rotated {
			animation-name: silly-walk;
			animation-duration: 1s;
			animation-iteration-count: infinite;
		}
	</style>
	<defs>
		<filter xmlns="http://www.w3.org/2000/svg" id="drop-shadow" height="130%">
			<feGaussianBlur in="SourceAlpha" stdDeviation="3"/>
			<feOffset dx="2" dy="2" result="offsetblur"/>
			<feComponentTransfer>
				<feFuncA type="linear" slope="0.05"/>
			</feComponentTransfer>
			<feMerge>
				<feMergeNode/>
				<feMergeNode in="SourceGraphic"/>
			</feMerge>
		</filter>
	</defs>
	<g id="chicken">
		<g id="chicken-group" style="filter:url(#drop-shadow)">
			<path id="chicken-right-leg" class="animated" d="m 66.78,500.18 c -0.90,8.09 10.46,5.56 15.62,5.59 12.02,-1.47 24.43,-4.31 36.33,-0.43 21.25,5.86 41.40,15.71 63.25,19.33 6.92,1.18 10.87,-6.99 3.56,-9.81 -2.76,-2.46 -12.84,-5.72 -10.15,-8.49 7.39,-1.51 20.07,0.80 22.81,-7.94 -1.66,-5.81 -12.77,-4.04 -13.34,-8.57 7.02,-2.9 2.9,-8.43 -2.79,-9.14 -17.90,-6.59 -37.93,-4.04 -55.43,2.54 -7.87,2.37 -2.41,-9.83 -3.88,-14.31 -0.13,-19.64 -0.39,-39.31 -1.97,-58.9 -0.93,-6.95 0.53,-19.11 -9.59,-19.03 -6.06,1.68 -5.28,9.36 -5.80,14.35 0.05,19.21 0.3,38.43 0.56,57.64 -0.03,6.97 -0.25,13.92 -0.17,20.88 0.16,7.67 -8.57,1.98 -13.2,3.77 -8.9,0.98 -17.83,4.42 -24.47,10.5 -0.54,0.6 -1.03,1.27 -1.34,2.02 z"
				style="fill:#da9d47;filter:url(#drop-shadow)" />
			<g id="chicken-body-group" class="rotated">
				<path d="m-153.31-63.17c3.87 9.2 9.39 37.34-6.03 17.85-6.46-6.71-30.65-12.75-10.3-0.87 17.86 18.52-19.62-1.24-28.31 5.46-22.56 6.41 7.08 2.18 14.03 5.21-7.26 4.41-38.5 11.04-40.42 23 5.56-6.92 30.67-10.73 11.93-0.42-26.96 17.7-49.02 45.95-49.92 79.31-6.31 15.62 9.22 42.62-2.8 51.21 1.05 0.27 16.71 8.17 2 13.7-14.85 16.46 17.49-11.33 6.83 9.98-1.57 10.28 0.86 15.24 4.94 2.32 6.25-0.99 7.54 27.26 23.02 26.8-9.82 10.98-36.35 13.47-52.32 21.53-17.67 9.64-39.79 3.22-57.22 14.23-23.14-4.33-47.49-8.13-70.75-3.5-24.65 17.72 40.48 27.31 11.56 38.41-13.15 21.01 38.77 9.1 32.87 17.52-11.16 3.29-23.7 22.5-2.8 17.21 25.8-12.63 17.29 28.38 36.41 38.25 23.78 24.63 50.32 47.5 80.49 63.87 16.39 0.27 46.58 10.85 69.13 6.1 14.04-4.47 13.73 2.4 20.93-0.25 22.12-2.23 38.94-16.4 52.96-32.56 9.12-4.26 19.59-32.04 23.93-23.78 3.57-1.35 9.27-24.66 8.89-34.42-2.9-15.86 2.94-9.57 4.79-9.36 0.42-10.25-2.32-24.37 0.92-26.26-8.12-18.78-18.04-37.02-31.83-52.22 6.57 1.49 16.83 7.82 4.81-1.17-6.72-7.49-35.27-16.62-12.74-22.41 27.47-14.29 47.76-39.39 60.24-67.28 20.68-0.78-10.24-14.84-13.6-23.24 10.69-12.09-1.23-36.29 17.14-41.62C-56.79 39.15-57.52 16.35-72.98 6.39-85.22-10.28-103.65-19.52-123.07-25.15c-26.54 3.26-15.11-25-30.24-38.02zm18.92 90.47c21.21 0.55 31.1 24.91 26.68 43.19-0.45 17.4-24.19 4.46-34.59 11.52-16.14-12.51-20.36-42.78-0.08-53.41l3.8-0.98 4.19-0.33z" id="chicken-body" class="color-dark-yellow" style="filter:url(#drop-shadow)" transform="matrix(1.0015724,0,0,0.9942415,414.97648,62.806159)"/>
				<path d="m-45.02 111.43c-3.9-5.45-7.63-11.11-12.72-15.56-1.71-2.38-7.73-3.27-4.52-6.82 3.32-5.89 4.93-12.59 4.99-19.34 0.14-5.56 0.24-11.65 3.96-16.17 2.75-3.77 7.67-5.9 12.27-4.73 11.44 1.91 22.77 4.46 34.24 6.18 5.45 1 10.97 1.47 16.44 2.28 1.72 1.17-3.03 2.99-4.11 4.16-11.49 7.57-23.39 14.77-36.39 19.43-3.47 1.79 2.96 3.02 4.38 4.16 9.5 4.45 19.2 8.44 28.97 12.24 3.07 1.73-4.47 2.13-6.11 2.91-11.68 2.76-23.05 6.71-34.11 11.35-2.23 0.67-5.33 1.74-7.29-0.1z" id="chicken-beak" class="color-orange" style="filter:url(#drop-shadow)" transform="matrix(1.0015724,0,0,0.9942415,414.97648,62.806159)" />
				<path id="chicken-beak-shadow" d="M 425.55273 121.38477 L 367.48047 147.07031 C 362.14626 148.89811 358.05497 150.9914 355.92383 152.18164 L 352.15625 153.84766 L 354.44141 153.19531 C 354.93677 153.36258 373.66396 159.65271 385.34375 157.91016 C 395.82102 156.34701 417.08398 159.49414 417.08398 159.49414 C 408.28968 147.87935 397.34991 144.03292 387.07617 143.77344 L 425.55273 121.38477 z " style="fill:#000000;fill-rule:evenodd;stroke:none;stroke-width:1px;stroke-linecap:butt;stroke-linejoin:miter;stroke-opacity:1" />

				<path d="m-143 7.05c-4.96-0.34-9.63 2.18-13.33 5.27-3.42 2.96-5.39 7.26-6.06 11.68-0.71 3.86-0.8 7.8-0.57 11.7 0.31 0.6 1.45-0.46 0.99 0.72 1.45-0.38 0.99-3.15 1.88-4.34 2.53-7.12 7.79-13.77 15.19-16.13 4.7-1.32 9.6 0.2 13.96 1.99 1.69 0.75 3.35 1.58 5.11 2.15 1.93 0.47 3.12 2.98 5.17 2.65-0.26-1.6-2.17-2.89-3.24-4.22-4.09-3.88-7.83-8.58-13.31-10.56-1.85-0.67-3.84-0.9-5.8-0.92z" id="chicken-brow" class="color-orange" transform="matrix(1.0015724,0,0,0.9942415,414.97648,62.806159)" />
				<g>
					<path style="fill:#ffffff;fill-rule:evenodd;stroke:#000000;stroke-width:2;stroke-linecap:butt;stroke-linejoin:miter;stroke-opacity:1;stroke-miterlimit:4;stroke-dasharray:none" d="m 266.76433,143.26232 c 0,0 -9.20733,-12.61075 -8.32542,-26.37283 0.48709,-7.60092 1.69446,-28.08078 20.32275,-27.262325 37.31653,1.639546 26.81756,50.459395 26.81756,50.459395 z" id="chicken-eye" />

					<path d="m-125.88 78.14c-3.09-3.12-4.59-7.54-4.6-11.89-0.09-4.1 0.65-8.34 2.75-11.91 1.65-2.27 4.33-3.47 6.86-4.49 1.96-0.75 4.19-0.77 6.1 0.14 3.63 1.5 6.71 4.77 7.38 8.71 0.57 4.27 0.06 8.6-0.49 12.85-0.43 2.91-1.07 5.8-2.21 8.52-4.66 0-9.33 0-13.99 0-0.6-0.64-1.19-1.28-1.79-1.92z" id="chicken-pupil" class="color-black" transform="matrix(1.0015724,0,0,0.9942415,414.97648,62.806159)" />
				</g>

			</g>
		</g>

		<g transform="matrix(1.0015724,0,0,0.9942415,414.97648,62.806159)">
			<path d="m-194.3 178.69c-9.26 0.39-17.1 8.64-26.41 6.39-15.09-1.78-29.98 2.53-44.25 6.95-12.04-4.4-24.3 1.49-36.53 1.34-9.15 0.83-18.54 2.44-26.52 7.26 5.27 7.52-11.82 5.11-15.11 9.83-12.05 4.49-9.39 20.44 2.38 22.89 4.69 2.84 25.45 2.79 12.21 8.06-9.12 1.65-16.32 13.24-4.72 17.85 6.92 4.96 20.36 3.37 25.05 5.69-8.83 2.32-17.2 14.25-4.08 17.48 11.65 4.04 24.35 2.12 36.3 0.73 3.98-1.56 14.12-1.13 5.53 3.29-7.4 3.51-17.31 17.83-3.3 19 11.56 1.77 22.69-2.88 33.41-6.54-4.86 10.9 17.36-4.72 6.5 5.93-8.74 6.37-5.09 21.49 6.7 15.26 11.65-3.07 21.43-10.41 32.14-15.6-4.09 3.52-10.95 15.41 0.15 9.99 8.99-4.95 17.05-11.52 27-14.58 11.7-5.65 20.84-15.36 28.01-25.98 9.61-9.53 17.68-21.29 19.56-34.96 4.01-15.05 6.46-32.67-3.45-46.08-5.31-12.62-20.49-3.21-30.67-5.8-13.72-0.36-27.06-3.78-39.91-8.4z" id="chicken-wing" class="color-yellow rotated" style="filter:url(#drop-shadow)" />
		</g>

		<path id="chicken-left-leg" class="animated" d="m 66.78,500.18 c -0.90,8.09 10.46,5.56 15.62,5.59 12.02,-1.47 24.43,-4.31 36.33,-0.43 21.25,5.86 41.40,15.71 63.25,19.33 6.92,1.18 10.87,-6.99 3.56,-9.81 -2.76,-2.46 -12.84,-5.72 -10.15,-8.49 7.39,-1.51 20.07,0.80 22.81,-7.94 -1.66,-5.81 -12.77,-4.04 -13.34,-8.57 7.02,-2.9 2.9,-8.43 -2.79,-9.14 -17.90,-6.59 -37.93,-4.04 -55.43,2.54 -7.87,2.37 -2.41,-9.83 -3.88,-14.31 -0.13,-19.64 -0.39,-39.31 -1.97,-58.9 -0.93,-6.95 0.53,-19.11 -9.59,-19.03 -6.06,1.68 -5.28,9.36 -5.80,14.35 0.05,19.21 0.3,38.43 0.56,57.64 -0.03,6.97 -0.25,13.92 -0.17,20.88 0.16,7.67 -8.57,1.98 -13.2,3.77 -8.9,0.98 -17.83,4.42 -24.47,10.5 -0.54,0.6 -1.03,1.27 -1.34,2.02 z" style="fill:#da9d47;filter:url(#drop-shadow)" />
	</g>
</svg>
